# xmcd
#
# Track frame offsets:
#	150
#	16827
#	29427
#	42337
#	53311
#	66469
#	79428
#	96277
#	111734
#
# Disc length: 1693 seconds
#
# Revision: 1
# Processed by: cddbd v1.5.1PL2 Copyright (c) Steve Scherf et al.
# Submitted via: audiograbber 1.83.01
#
DISCID=78069b09
DTITLE=Greg Bain - Born To The Country
DYEAR=2005
DGENRE=Australian Country
TTITLE0=Born To The Country
TTITLE1=Farmers, Coalminers, Truckdrivers
TTITLE2=Hunter Valley Coalminer
TTITLE3=Legend Of The Road
TTITLE4=Time To Leave The Nest
TTITLE5=People Of The Outback
TTITLE6=People Of The Liverpool Plains
TTITLE7=All In The Name Of Progress
TTITLE8=The Way They Used To Be
EXTD=
EXTT0=
EXTT1=
EXTT2=
EXTT3=
EXTT4=
EXTT5=
EXTT6=
EXTT7=
EXTT8=
PLAYORDER=
